# xmcd
#
# Track frame offsets:
#	150
#	14519
#	39325
#	59717
#	73156
#	94713
#	117316
#	126620
#	137716
#	154496
#	167205
#	185716
#
# Disc length: 2566 seconds
#
# Revision: 1
# Processed by: cddbd v1.5.2PL0 Copyright (c) Steve Scherf et al.
# Submitted via: EasyCDDAExtractor 15.2.5.1
#
DISCID=bb0a040c
DTITLE=Tony Jeary - Communication Mastery 4 of 8
DYEAR=2005
DGENRE=Communication
TTITLE0=About The Ipresent Model
TTITLE1=Involving Your Audience
TTITLE2=Preparing Your Audience
TTITLE3=Researching And Building
TTITLE4=Building Your Hard Copy
TTITLE5=Building Your Material Arsenal
TTITLE6=Explaining Why
TTITLE7=State Management
TTITLE8=Eliminating The Unknows
TTITLE9=Knowing Your Audience
TTITLE10=Tailoring Your Presentation
TTITLE11=VIP's For Session 4
EXTD=
EXTT0=
EXTT1=
EXTT2=
EXTT3=
EXTT4=
EXTT5=
EXTT6=
EXTT7=
EXTT8=
EXTT9=
EXTT10=
EXTT11=
PLAYORDER=
